PathFileType	4	(X/Y/Z)	D:\TRACE\spot_10-12-23\spot_arm_motion_2_1-platform.trc
DataRate	CameraRate	NumFrames	NumMarkers	Units	OrigDataRate	OrigDataStartFrame	OrigNumFrames
100.00	100.00	      60	5	mm	100.00	3501	      7000
Frame#	Time	Left_Front			Right_Front			Left_Aft			Right_Aft			Post			
		X1	Y1	Z1	X2	Y2	Z2	X3	Y3	Z3	X4	Y4	Z4	X5	Y5	Z5	

3501	35.000	-751.36792	66.87907	-624.03687	821.41663	71.57239	-617.35773	-667.77991	-37.74661	508.96259	749.42206	-40.42410	594.88751	31.24184	830.94348	-872.95874	
3502	35.010	-751.96301	66.48264	-624.33417	820.64825	70.98505	-617.46484	-668.75006	-37.14152	508.78418	748.53699	-40.02956	594.81586	30.55075	830.37244	-873.60822	
3503	35.020	-753.08759	66.22958	-624.46729	819.51508	70.40508	-617.74750	-669.72076	-36.64485	508.69077	747.85004	-39.55633	594.81299	29.78784	829.70056	-874.44165	
3504	35.030	-753.92126	65.54942	-624.66937	818.63586	70.01746	-617.94348	-670.43939	-36.40700	508.83716	746.56927	-38.95188	594.52826	28.77241	828.84357	-875.31555	
3505	35.040	-754.92023	65.00238	-624.90790	817.81226	69.32471	-618.11633	-671.17560	-36.06527	508.90384	745.90057	-38.64927	594.53979	27.78564	828.13342	-876.24811	
3506	35.050	-755.77136	64.28151	-624.90210	816.99701	68.59881	-618.13843	-672.44080	-35.58105	508.42648	745.08398	-38.12909	594.46600	26.90290	827.12054	-877.09882	
3507	35.060	-756.68439	63.53688	-625.24792	815.93018	68.05884	-618.45636	-673.28143	-35.43998	508.64645	743.93811	-37.68933	594.25995	26.03932	826.48260	-878.01532	
3508	35.070	-757.53186	62.80885	-625.43396	814.98535	67.50864	-618.58380	-674.15753	-35.01698	508.53491	743.09406	-37.04887	594.19031	24.99262	825.63776	-879.11530	
3509	35.080	-758.51453	62.47956	-625.63983	813.98596	66.89236	-619.05896	-675.26471	-34.22666	508.05875	742.18866	-36.47033	594.08954	23.82854	824.66138	-880.21771	
3510	35.090	-759.47839	61.63643	-625.92426	813.01544	66.26489	-619.15277	-676.18060	-33.90844	508.05527	741.08710	-35.95227	593.77179	23.35061	823.66718	-881.16089	
3511	35.100	-760.64117	61.13067	-626.14648	811.99756	65.39194	-619.25012	-676.94977	-33.35642	508.01117	740.20673	-35.32587	593.71954	22.13274	822.59564	-882.29803	
3512	35.110	-761.60211	60.17699	-626.45111	811.19934	64.49808	-619.37225	-677.88037	-32.83917	508.05951	739.15417	-34.67040	593.62219	21.22374	821.57031	-883.14520	
3513	35.120	-762.55322	59.41814	-626.57367	810.16229	63.69771	-619.83698	-679.13892	-32.19910	507.87021	738.06390	-34.11159	593.31537	29.28202	740.48950	-900.09412	
3514	35.130	-763.75696	58.51047	-626.89075	809.09851	62.98235	-620.17706	-680.28381	-31.49978	507.22568	737.02338	-33.21849	593.38074	19.45371	819.11499	-885.44556	
3515	35.140	-764.63385	57.93753	-627.16687	808.01837	62.06765	-620.29102	-681.36792	-30.86384	507.08615	736.13983	-32.59990	593.16534	18.06636	818.08496	-886.76324	
3516	35.150	-765.57831	56.81804	-627.42798	807.11023	61.16211	-620.63922	-682.39465	-30.24796	506.98038	735.08240	-31.96968	592.97943	16.95975	816.96082	-888.00378	
3517	35.160	-766.72186	56.12507	-627.74597	805.87299	60.18210	-620.87604	-683.32825	-29.70364	506.76459	733.89716	-31.05168	592.82727	16.06392	815.65424	-889.48212	
3518	35.170	-767.70154	54.92399	-628.11963	804.94513	59.40084	-621.32672	-684.40900	-28.79178	506.52652	732.93127	-30.39938	592.75458	14.85595	814.26746	-890.97968	
3519	35.180	-768.80298	54.03395	-628.32147	803.75592	58.46428	-621.65747	-685.52661	-28.11946	506.51968	731.53925	-29.69690	592.51331	13.92992	812.90717	-892.31714	
3520	35.190	-769.84729	53.11866	-628.69507	802.71002	57.46072	-621.94556	-686.53912	-27.54200	506.34628	730.66992	-28.69663	592.38617	12.82996	811.50812	-893.84991	
3521	35.200	-771.12665	52.18520	-629.06293	801.65771	56.52488	-622.08423	-687.68811	-26.70113	506.01675	729.64709	-27.96543	592.12201	11.65526	810.17871	-895.46820	
3522	35.210	-772.05536	50.87089	-629.31421	800.70636	55.29461	-622.52130	-688.81097	-26.15311	505.88477	728.54944	-27.01985	591.99536	10.70357	808.78961	-896.97614	
3523	35.220	-773.23108	50.08174	-629.71082	799.43597	54.41014	-622.75757	-689.92285	-25.49303	505.69476	727.56000	-26.14906	591.80817	9.84291	807.26044	-898.37512	
3524	35.230	-774.36237	48.97414	-629.93939	798.65070	53.33027	-622.93262	-691.04065	-24.68794	505.56323	726.22131	-25.44225	591.60583	8.63501	805.73901	-899.99628	
3525	35.240	-775.42804	47.81298	-630.33398	797.27301	52.13572	-623.41602	-692.11963	-23.68797	505.32660	725.35706	-24.43751	591.48883	7.34471	804.06659	-901.56641	
3526	35.250	-776.40710	46.72466	-630.63654	796.18237	51.04148	-623.96326	-693.14331	-23.12069	505.21826	724.16534	-23.40990	591.14496	6.16887	802.44147	-903.14764	
3527	35.260	-777.66589	45.65860	-630.98358	795.12561	50.02744	-624.16089	-694.42224	-22.20067	504.81509	723.10815	-22.44601	590.98212	5.08504	800.86188	-904.75702	
3528	35.270	-778.77002	44.47112	-631.45557	794.07867	48.68137	-624.36609	-695.38416	-21.45152	504.70889	721.95270	-21.62024	590.78674	4.03142	799.23987	-906.36285	
3529	35.280	-779.86407	43.32687	-631.63983	792.90289	47.60998	-624.76123	-696.45441	-20.58175	504.42838	720.59210	-20.68464	590.45374	2.96279	797.53320	-907.94086	
3530	35.290	-781.06171	42.02803	-631.97522	791.73065	46.36923	-625.30792	-697.63922	-19.88410	504.47836	719.59821	-19.75961	590.27435	1.88886	795.86902	-909.58514	
3531	35.300	-782.07611	40.84332	-632.51581	790.55170	45.32266	-625.54163	-698.91028	-18.80023	503.89975	718.37189	-18.79476	589.89886	0.77304	794.27155	-911.50885	
3532	35.310	-783.29401	39.84127	-632.77832	789.58051	43.98615	-625.75189	-699.95074	-18.11919	503.84802	717.40912	-17.65299	589.73907	-0.42564	792.50195	-913.27625	
3533	35.320	-784.46899	38.39301	-633.07214	788.36969	42.87894	-626.19727	-701.14081	-17.20364	503.33478	716.26447	-16.56094	589.61725	-1.54268	790.68982	-915.02826	
3534	35.330	-785.66882	37.11151	-633.54358	787.14099	41.45127	-626.69641	-702.29419	-16.18664	503.11618	715.05469	-15.40725	589.33179	-2.67057	788.88623	-916.81573	
3535	35.340	-786.58899	35.90466	-633.86194	786.03613	40.24046	-626.94629	-703.35492	-15.27455	502.84647	714.01025	-14.59556	589.09497	-3.80135	787.08228	-918.67773	
3536	35.350	-787.66949	34.51038	-634.10736	785.05066	39.02057	-627.22131	-704.55359	-14.46859	502.50867	712.68683	-13.47743	588.73273	-4.72108	785.26910	-920.68976	
3537	35.360	-788.75055	33.07466	-634.68079	783.87604	37.84466	-627.64349	-705.69666	-13.53197	502.30759	711.56696	-12.55279	588.52203	-6.19417	783.46783	-922.37683	
3538	35.370	-790.11554	31.99980	-635.06146	782.76721	36.19850	-628.07312	-706.86298	-12.61071	501.96216	710.40924	-11.37383	588.28534	-6.88459	781.52264	-924.09662	
3539	35.380	-791.08276	30.55052	-635.17914	781.51599	35.04144	-628.49420	-707.78741	-11.62057	501.79358	709.42743	-10.18532	588.01221	-8.28596	779.67969	-925.94684	
3540	35.390	-792.38519	29.55932	-635.79883	780.56427	33.70034	-628.84784	-709.04150	-10.67150	501.49695	708.34027	-9.08302	587.79395	-9.58493	777.71643	-927.93079	
3541	35.400	-793.32910	27.91137	-636.20856	779.27130	32.13257	-629.04114	-710.24219	-9.74151	501.06982	707.02979	-8.03304	587.31750	-10.61309	775.68640	-929.91565	
3542	35.410	-794.46484	26.42868	-636.43951	778.32068	30.94336	-629.50989	-711.30237	-9.01095	500.95407	705.91638	-7.01259	587.03625	-11.59117	773.73242	-931.76788	
3543	35.420	-795.70593	25.25189	-636.74585	777.18066	29.47107	-629.86542	-712.41266	-7.80109	500.50977	704.62994	-5.86172	586.65527	-12.62667	771.79810	-933.58551	
3544	35.430	-796.77594	23.98682	-637.23254	775.96393	28.15896	-630.29919	-713.39166	-7.09814	500.67438	703.55365	-4.86581	586.43823	-13.68070	769.68750	-935.63763	
3545	35.440	-797.79962	22.29232	-637.57764	774.87720	26.79004	-630.65985	-714.59503	-6.11562	500.13171	702.64172	-3.51510	586.18555	-14.85925	767.83124	-937.64606	
3546	35.450	-798.93707	20.94282	-637.92383	773.76672	25.39815	-631.07465	-715.83997	-5.06904	499.54431	701.38141	-2.50141	585.91650	-16.05959	765.85950	-939.52020	
3547	35.460	-800.26471	19.79675	-638.22882	772.73737	23.91970	-631.22791	-716.79187	-4.07440	499.39099	700.31982	-1.28058	585.65735	-17.17836	763.74683	-941.36279	
3548	35.470	-801.17371	18.08869	-638.59235	771.56384	22.51023	-631.67957	-718.08594	-3.05406	498.99258	698.95300	-0.31963	585.23981	-18.13044	761.62970	-943.30383	
3549	35.480	-802.36261	16.92672	-639.18677	770.65186	21.29880	-632.11346	-719.20740	-2.00751	498.64459	697.96411	0.89047	584.98718	-19.05968	759.58630	-945.39722	
3550	35.490	-803.38019	15.48471	-639.49915	769.15253	19.67104	-632.54913	-720.15930	-1.24122	498.45251	696.90497	2.08989	584.44690	-20.50633	757.51141	-947.40210	
3551	35.500	-804.44989	13.93230	-639.70709	768.27051	18.51011	-632.75824	-721.27747	-0.11351	497.99188	695.68713	3.19155	584.24841	-21.56845	755.42242	-949.17633	
3552	35.510	-805.47699	12.44632	-640.03210	767.26697	16.91708	-633.18066	-722.28986	0.88135	497.94110	694.62848	4.27110	583.94446	-22.40575	753.31616	-951.04517	
3553	35.520	-806.49567	11.27033	-640.41046	766.21832	15.45754	-633.39484	-723.41083	1.89428	497.40204	693.23529	5.29625	583.53149	-23.35207	751.24268	-953.06818	
3554	35.530	-807.56488	9.61229	-640.85425	765.16937	14.10332	-633.88873	-724.34766	2.65589	497.33514	692.47589	6.39936	583.18994	-24.50614	749.19202	-955.00989	
3555	35.540	-808.53442	8.17239	-641.19995	764.09296	12.61855	-634.30316	-725.50879	3.78880	496.91885	691.90692	8.10715	582.84436	-25.74029	747.13904	-956.73743	
3556	35.550	-809.72205	6.93605	-641.45782	763.00726	11.37797	-634.52942	-726.44037	4.93658	496.68750	690.31329	8.64103	582.39697	-26.56711	745.06476	-958.62415	
3557	35.560	-810.49121	5.37804	-641.84613	762.16010	9.63769	-634.83246	-727.48224	5.73129	496.14978	689.19635	9.63056	582.10931	-27.53352	742.91321	-960.66211	
3558	35.570	-811.80768	4.28924	-642.21808	761.11713	8.47067	-635.17023	-728.69318	6.72228	495.61411	687.90588	10.70038	581.57562	-28.61671	740.72559	-962.58899	
3559	35.580	-812.62415	2.69975	-642.52728	759.98175	7.11372	-635.67212	-729.69257	7.70383	495.30179	687.16943	11.78773	581.33978	-29.50808	738.53156	-964.65405	
3560	35.590	-813.37823	0.93830	-642.81842	759.08197	5.52073	-635.90906	-730.36273	8.63816	495.13873	686.68256	13.88661	581.06262	-30.50390	736.34113	-966.47559	
